<?xml version="1.0" standalone="no"?><svg xmlns="http://www.w3.org/2000/svg" viewBox="0 0 1440 320"><path fill="#273036" fill-opacity="1" d="M0,256L0,96L120,96L120,288L240,288L240,32L360,32L360,128L480,128L480,192L600,192L600,32L720,32L720,224L840,224L840,96L960,96L960,128L1080,128L1080,256L1200,256L1200,128L1320,128L1320,64L1440,64L1440,320L1320,320L1320,320L1200,320L1200,320L1080,320L1080,320L960,320L960,320L840,320L840,320L720,320L720,320L600,320L600,320L480,320L480,320L360,320L360,320L240,320L240,320L120,320L120,320L0,320L0,320Z"></path></svg>